HIERARCHY
ROOT Hips
{
  OFFSET -4.35178 90.3298 111.633
  CHANNELS 6 Xposition Yposition Zposition Zrotation Xrotation Yrotation
  JOINT LeftUpLeg
  {
    OFFSET 0.103456 1.85784 10.5485
    CHANNELS 6 Xposition Yposition Zposition Zrotation Xrotation Yrotation
    JOINT LeftLeg
    {
      OFFSET 43.5 -4.2e-05 0
      CHANNELS 6 Xposition Yposition Zposition Zrotation Xrotation Yrotation
      JOINT LeftFoot
      {
        OFFSET 42.3722 1.9e-05 0
        CHANNELS 6 Xposition Yposition Zposition Zrotation Xrotation Yrotation
        JOINT LeftToe
        {
          OFFSET 17.3 0 0
          CHANNELS 6 Xposition Yposition Zposition Zrotation Xrotation Yrotation
          End Site
          {
            OFFSET 0 0 0
          }
        }
      }
    }
  }
  JOINT RightUpLeg
  {
    OFFSET 0.103456 1.85782 -10.5485
    CHANNELS 6 Xposition Yposition Zposition Zrotation Xrotation Yrotation
    JOINT RightLeg
    {
      OFFSET 43.5 -2.7e-05 0
      CHANNELS 6 Xposition Yposition Zposition Zrotation Xrotation Yrotation
      JOINT RightFoot
      {
        OFFSET 42.3723 0 0
        CHANNELS 6 Xposition Yposition Zposition Zrotation Xrotation Yrotation
        JOINT RightToe
        {
          OFFSET 17.3 0 1.7e-05
          CHANNELS 6 Xposition Yposition Zposition Zrotation Xrotation Yrotation
          End Site
          {
            OFFSET 0 0 0
          }
        }
      }
    }
  }
  JOINT Spine
  {
    OFFSET 6.90197 -2.60373 0
    CHANNELS 6 Xposition Yposition Zposition Zrotation Xrotation Yrotation
    JOINT Spine1
    {
      OFFSET 12.5881 0 0
      CHANNELS 6 Xposition Yposition Zposition Zrotation Xrotation Yrotation
      JOINT Spine2
      {
        OFFSET 12.3432 -1.8e-05 0
        CHANNELS 6 Xposition Yposition Zposition Zrotation Xrotation Yrotation
        JOINT Neck
        {
          OFFSET 25.8329 2.3e-05 0
          CHANNELS 6 Xposition Yposition Zposition Zrotation Xrotation Yrotation
          JOINT Head
          {
            OFFSET 11.7666 0 0
            CHANNELS 6 Xposition Yposition Zposition Zrotation Xrotation Yrotation
            End Site
            {
              OFFSET 0 0 0
            }
          }
        }
        JOINT LeftShoulder
        {
          OFFSET 19.7459 -1.48035 6.0001
          CHANNELS 6 Xposition Yposition Zposition Zrotation Xrotation Yrotation
          JOINT LeftArm
          {
            OFFSET 11.2841 1.8e-05 -2e-05
            CHANNELS 6 Xposition Yposition Zposition Zrotation Xrotation Yrotation
            JOINT LeftForeArm
            {
              OFFSET 33 -1.3e-05 1.9e-05
              CHANNELS 6 Xposition Yposition Zposition Zrotation Xrotation Yrotation
              JOINT LeftHand
              {
                OFFSET 25.2 3.2e-05 1.1e-05
                CHANNELS 6 Xposition Yposition Zposition Zrotation Xrotation Yrotation
                End Site
                {
                  OFFSET 0 0 0
                }
              }
            }
          }
        }
        JOINT RightShoulder
        {
          OFFSET 19.7461 -1.48036 -6.00008
          CHANNELS 6 Xposition Yposition Zposition Zrotation Xrotation Yrotation
          JOINT RightArm
          {
            OFFSET 11.2841 0 0
            CHANNELS 6 Xposition Yposition Zposition Zrotation Xrotation Yrotation
            JOINT RightForeArm
            {
              OFFSET 33.0001 1.6e-05 0
              CHANNELS 6 Xposition Yposition Zposition Zrotation Xrotation Yrotation
              JOINT RightHand
              {
                OFFSET 25.1998 0.000123 0.000432
                CHANNELS 6 Xposition Yposition Zposition Zrotation Xrotation Yrotation
                End Site
                {
                  OFFSET 0 0 0
                }
              }
            }
          }
        }
      }
    }
  }
}
MOTION
Frames:	6
Frame Time:	0.0333333
70.6031 89.3162 115.632 -83.3584 -61.0849 -176.268 0.103456 1.85784 10.5485 21.5452 3.54852 172.263 43.5 -4.2e-05 1e-05 -24.5435 -12.3614 -8.20955 42.3722 1.9e-05 0 52.5129 32.9531 -9.02614 17.3 0 3e-06 21.4546 -1e-06 0.003093 0.103456 1.85782 -10.5485 -25.8817 0.419391 171.631 43.5 -2.7e-05 4e-06 -44.0947 9.25455 -2.78706 42.3723 1.42109e-14 1e-05 75.3963 7.88496 -2.89362 17.3 -6e-06 1.7e-05 21.4546 -1.9e-05 -0.003116 6.90197 -2.60373 -3e-06 10.542 -1.43812 -0.156861 12.5881 1e-05 8e-06 11.1069 -2.75696 0.00136743 12.3432 -1.8e-05 -5e-06 10.833 -2.58551 0.188842 25.8329 2.3e-05 7e-06 5.01653 2.15637 -10.691 11.7666 -8e-06 -6e-06 -34.924 -0.349723 9.27242 19.7459 -1.48035 6.0001 -167.345 14.3879 -93.8885 11.2841 1.8e-05 -2e-05 8.07506 -27.1517 73.909 33 -1.3e-05 1.9e-05 -127.793 -21.8748 2.96288 25.2 3.2e-05 1.1e-05 -15.8276 17.8173 2.05646 19.7461 -1.48036 -6.00008 -172.68 4.2932 83.9816 11.2841 0 -1e-06 -27.155 -8.14235 -50.0626 33.0001 1.6e-05 -1e-06 -108.613 -3.32552 26.4501 25.1998 0.000123 0.000432 -30.7591 -34.2964 22.8793 
73.6045 90.3726 109.833 -84.3154 -60.9476 -177.452 0.103456 1.85784 10.5485 22.4329 3.00854 173.643 43.5 -4.2e-05 1e-05 -25.0556 -13.1541 -8.30336 42.3722 1.9e-05 -1.42109e-14 48.5342 38.4241 -11.7849 17.3 0 3e-06 21.4546 -1e-06 0.003093 0.103456 1.85782 -10.5485 -21.8382 -1.51522 173.195 43.5 -2.7e-05 4e-06 -26.9447 5.44538 -0.337425 42.3723 0 1e-05 72.1157 10.2235 3.72731 17.3 -6e-06 1.7e-05 21.4546 -1.9e-05 -0.003116 6.90197 -2.60373 -3e-06 10.3151 -1.37395 0.0792413 12.5881 1e-05 8e-06 10.6549 -2.5889 0.452889 12.3432 -1.8e-05 -5e-06 10.3761 -2.39677 0.628904 25.8329 2.3e-05 7e-06 4.71408 1.97419 -10.7474 11.7666 -8e-06 -6e-06 -35.8933 -0.167969 8.86708 19.7459 -1.48035 6.0001 -167.885 13.3346 -94.1243 11.2841 1.8e-05 -2e-05 3.68484 -24.9551 70.9798 33 -1.3e-05 1.9e-05 -127.386 -22.9174 1.88751 25.2 3.2e-05 1.1e-05 -14.4424 15.7577 3.97412 19.7461 -1.48036 -6.00008 -172.088 4.54227 84.2601 11.2841 1.42109e-14 -1e-06 -26.5905 -7.86197 -49.9701 33.0001 1.6e-05 -1e-06 -109.207 -4.24831 26.4082 25.1998 0.000123 0.000432 -29.9453 -30.6207 20.5427 
76.6241 89.9767 104.041 -83.3506 -61.1572 -176.493 0.103456 1.85784 10.5485 20.6616 1.94855 174.428 43.5 -4.2e-05 1e-05 -33.2211 -13.8116 -8.04655 42.3722 1.9e-05 1.42109e-14 51.096 44.0476 -14.5877 17.3 7.10543e-15 3e-06 21.4546 -1e-06 0.003093 0.103456 1.85782 -10.5485 -19.4833 -3.96369 174.378 43.5 -2.7e-05 4e-06 -21.2982 4.15315 1.03278 42.3723 0 1e-05 70.9639 12.1024 6.30259 17.3 -6e-06 1.7e-05 21.4546 -1.9e-05 -0.003116 6.90197 -2.60373 -3e-06 10.2024 -1.16857 0.0522613 12.5881 1e-05 8e-06 10.4221 -2.18853 0.356833 12.3432 -1.8e-05 -5e-06 10.1367 -2.00668 0.50797 25.8329 2.3e-05 7e-06 4.65433 1.91193 -10.8768 11.7666 -8e-06 -6e-06 -35.884 -0.352015 9.08711 19.7459 -1.48035 6.0001 -167.912 12.8817 -93.5194 11.2841 1.8e-05 -2e-05 0.944615 -22.6458 68.6623 33 -1.3e-05 1.9e-05 -126.896 -23.9627 0.694042 25.2 3.2e-05 1.1e-05 -15.0236 16.1367 3.87366 19.7461 -1.48036 -6.00008 -171.995 4.68351 84.192 11.2841 1.42109e-14 -1e-06 -26.2551 -6.82487 -49.7276 33.0001 1.6e-05 -1e-06 -108.956 -5.04909 26.1035 25.1998 0.000123 0.000432 -28.7247 -26.9801 18.3307 
79.5016 88.6577 98.3066 -80.2392 -61.5275 -173.303 0.103456 1.85784 10.5485 17.9631 2.12681 174.869 43.5 -4.2e-05 1e-05 -45.8756 -14.7276 -6.6547 42.3722 1.9e-05 0 59.1718 49.0187 -20.0564 17.3 0 3e-06 21.4546 -1e-06 0.003093 0.103456 1.85782 -10.5485 -18.7171 -6.81028 174.452 43.5 -2.7e-05 4e-06 -26.6289 4.89149 1.96409 42.3723 0 1e-05 72.4146 10.9103 4.31329 17.3 -6e-06 1.7e-05 21.4546 -1.9e-05 -0.003116 6.90197 -2.60373 -3e-06 10.2697 -0.762667 -0.132911 12.5881 1e-05 8e-06 10.5431 -1.41497 -0.0889158 12.3432 -1.8e-05 -5e-06 10.2464 -1.26046 0.0149318 25.8329 2.3e-05 7e-06 4.64428 1.73591 -10.917 11.7666 -8e-06 -6e-06 -34.6766 -0.839437 9.40496 19.7459 -1.48035 6.0001 -167.259 12.731 -92.1941 11.2841 1.8e-05 -2e-05 0.947424 -21.0847 68.0211 33 -1.3e-05 1.9e-05 -126.342 -24.4633 -0.429745 25.2 3.2e-05 1.1e-05 -15.4972 17.7066 2.9282 19.7461 -1.48036 -6.00008 -172.307 4.37964 83.8151 11.2841 1.42109e-14 -1e-06 -26.0575 -5.33639 -49.3092 33.0001 1.6e-05 -1e-06 -108.042 -4.26108 25.8071 25.1998 0.000123 0.000432 -28.0297 -24.5538 17.0972 
82.4272 86.4902 92.6729 -75.9536 -62.5263 -169.266 0.103456 1.85784 10.5485 14.8315 3.251 176.848 43.5 -4.2e-05 1e-05 -59.7827 -15.9853 -5.43602 42.3722 1.9e-05 1.42109e-14 69.4323 50.605 -26.0665 17.3 0 3e-06 21.4546 -1e-06 0.003093 0.103456 1.85782 -10.5485 -18.0339 -8.52122 174.41 43.5 -2.7e-05 4e-06 -36.7767 6.29265 1.47289 42.3723 -1.42109e-14 1e-05 80.1206 5.21799 1.3152 17.3 -6e-06 1.7e-05 21.4546 -1.9e-05 -0.003116 6.90197 -2.60373 -3e-06 10.4015 -0.230095 -0.17244 12.5881 1e-05 8e-06 10.7938 -0.360118 -0.269772 12.3432 -1.8e-05 -5e-06 10.4809 -0.215128 -0.231064 25.8329 2.3e-05 7e-06 4.5493 0.807612 -10.4806 11.7666 -8e-06 -6e-06 -33.1289 -2.07038 9.12829 19.7459 -1.48035 6.0001 -166.543 12.2614 -90.0239 11.2841 1.8e-05 -2e-05 2.38415 -20.1168 68.6757 33 -1.3e-05 1.9e-05 -125.253 -23.8383 -1.53026 25.2 3.2e-05 1.1e-05 -15.4909 19.6848 1.94168 19.7461 -1.48036 -6.00008 -173.083 4.11851 83.4135 11.2841 0 -1e-06 -25.8464 -3.86875 -48.3878 33.0001 1.6e-05 -1e-06 -106.445 -3.39373 25.4001 25.1998 0.000123 0.000432 -28.4333 -22.3757 16.0451 
85.2834 84.1729 87.2145 -71.5256 -64.9312 -164.942 0.103456 1.85784 10.5485 9.36439 4.01949 179.595 43.5 -4.2e-05 1e-05 -74.0878 -17.0399 -3.0294 42.3722 1.9e-05 0 78.7913 51.649 -30.5515 17.3 -7.10543e-15 3e-06 21.4546 -1e-06 0.003093 0.103456 1.85782 -10.5485 -17.9278 -6.82183 176.515 43.5 -2.7e-05 4e-06 -47.6959 8.78273 -2.95385 42.3723 0 1e-05 86.9139 8.65174 -1.55525 17.3 -6e-06 1.7e-05 21.4546 -1.9e-05 -0.003116 6.90197 -2.60373 -3e-06 10.4543 0.181068 -0.0609792 12.5881 1e-05 8e-06 10.8901 0.480757 -0.128289 12.3432 -1.8e-05 -5e-06 10.5641 0.634256 -0.141844 25.8329 2.3e-05 7e-06 4.40835 -0.581093 -9.90234 11.7666 -8e-06 -6e-06 -31.698 -3.57324 8.54271 19.7459 -1.48035 6.0001 -166.012 11.6706 -86.8282 11.2841 1.8e-05 -2e-05 4.51673 -19.2147 69.8571 33 -1.3e-05 1.9e-05 -123.173 -21.5955 -2.81882 25.2 3.2e-05 1.1e-05 -15.6597 23.4925 -0.0702785 19.7461 -1.48036 -6.00008 -174.51 3.81264 82.2495 11.2841 -1.42109e-14 -1e-06 -25.8031 -2.16983 -46.622 33.0001 1.6e-05 -1e-06 -106.48 -4.80476 24.8824 25.1998 0.000123 0.000432 -21.3331 -17.1287 12.9334 
